# xmcd CD database file
# Copyright (C) 1995-1998 Ti Kan
#
# Track frame offsets:
#	187
#	13207
#	24367
#	37230
#	48895
#	60605
#	72617
#	83697
#	96692
#	107750
#	120432
#	132390
#	143452
#	154895
#	165282
#	176012
#	186247
#	199477
#	214302
#	224355
#
# Disc length: 3162 seconds
#
# Revision: 1
# Processed by: cddbd v1.4b41PL1 Copyright (c) Steve Scherf et al.
# Submitted via: CDex 1.30Release
#
DISCID=2b0c5814
DTITLE=Monroe Brothers - Collection (1936-'38) 2
DYEAR=1997
DGENRE=Country
TTITLE0=My Savior's Train
TTITLE1=I Am Thinking Tonight Of The Old Folks
TTITLE2=Dreamed I Searched Heaven For You
TTITLE3=The Old Cross Road
TTITLE4=The Forgotten Soldier Boy
TTITLE5=We Read Of A Place That's Called Heaven
TTITLE6=Will The Circle Be Unbroken
TTITLE7=The Saints Go Marching In
TTITLE8=Roll In My Sweet Baby's Arms
TTITLE9=Where Is My Sailor Boy?
TTITLE10=I Am Ready To Go
TTITLE11=What Would The Profit Be
TTITLE12=Some Glad Day
TTITLE13=I Have Found The Way
TTITLE14=I Am Going That Way
TTITLE15=Katy Cline
TTITLE16=Roll On Buddy
TTITLE17=Weeping Willow Tree
TTITLE18=I'll Live On
TTITLE19=Oh Hide You In The Blood
EXTD=YEAR: 1997 ID3G:   2
EXTT0=
EXTT1=
EXTT2=
EXTT3=
EXTT4=
EXTT5=
EXTT6=
EXTT7=
EXTT8=
EXTT9=
EXTT10=
EXTT11=
EXTT12=
EXTT13=
EXTT14=
EXTT15=
EXTT16=
EXTT17=
EXTT18=
EXTT19=
PLAYORDER=
